<svg width="16" height="12" viewBox="0 0 16 12" fill="none" xmlns="http://www.w3.org/2000/svg">
<path d="M5.33329 6.5C5.15648 6.5 4.98691 6.44732 4.86189 6.35355C4.73686 6.25979 4.66663 6.13261 4.66663 6C4.66663 5.86739 4.73686 5.74021 4.86189 5.64645C4.98691 5.55268 5.15648 5.5 5.33329 5.5C5.5101 5.5 5.67967 5.55268 5.8047 5.64645C5.92972 5.74021 5.99996 5.86739 5.99996 6C5.99996 6.13261 5.92972 6.25979 5.8047 6.35355C5.67967 6.44732 5.5101 6.5 5.33329 6.5ZM5.33329 8.5C5.15648 8.5 4.98691 8.44732 4.86189 8.35355C4.73686 8.25979 4.66663 8.13261 4.66663 8C4.66663 7.86739 4.73686 7.74021 4.86189 7.64645C4.98691 7.55268 5.15648 7.5 5.33329 7.5C5.5101 7.5 5.67967 7.55268 5.8047 7.64645C5.92972 7.74021 5.99996 7.86739 5.99996 8C5.99996 8.13261 5.92972 8.25979 5.8047 8.35355C5.67967 8.44732 5.5101 8.5 5.33329 8.5ZM7.33329 8C7.33329 8.13261 7.40353 8.25979 7.52855 8.35355C7.65358 8.44732 7.82315 8.5 7.99996 8.5C8.17677 8.5 8.34634 8.44732 8.47136 8.35355C8.59639 8.25979 8.66663 8.13261 8.66663 8C8.66663 7.86739 8.59639 7.74021 8.47136 7.64645C8.34634 7.55268 8.17677 7.5 7.99996 7.5C7.82315 7.5 7.65358 7.55268 7.52855 7.64645C7.40353 7.74021 7.33329 7.86739 7.33329 8ZM10.6666 8.5C10.4898 8.5 10.3202 8.44732 10.1952 8.35355C10.0702 8.25979 9.99996 8.13261 9.99996 8C9.99996 7.86739 10.0702 7.74021 10.1952 7.64645C10.3202 7.55268 10.4898 7.5 10.6666 7.5C10.8434 7.5 11.013 7.55268 11.138 7.64645C11.2631 7.74021 11.3333 7.86739 11.3333 8C11.3333 8.13261 11.2631 8.25979 11.138 8.35355C11.013 8.44732 10.8434 8.5 10.6666 8.5ZM7.33329 6C7.33329 6.13261 7.40353 6.25979 7.52855 6.35355C7.65358 6.44732 7.82315 6.5 7.99996 6.5C8.17677 6.5 8.34634 6.44732 8.47136 6.35355C8.59639 6.25979 8.66663 6.13261 8.66663 6C8.66663 5.86739 8.59639 5.74021 8.47136 5.64645C8.34634 5.55268 8.17677 5.5 7.99996 5.5C7.82315 5.5 7.65358 5.55268 7.52855 5.64645C7.40353 5.74021 7.33329 5.86739 7.33329 6ZM10.6666 6.5C10.4898 6.5 10.3202 6.44732 10.1952 6.35355C10.0702 6.25979 9.99996 6.13261 9.99996 6C9.99996 5.86739 10.0702 5.74021 10.1952 5.64645C10.3202 5.55268 10.4898 5.5 10.6666 5.5C10.8434 5.5 11.013 5.55268 11.138 5.64645C11.2631 5.74021 11.3333 5.86739 11.3333 6C11.3333 6.13261 11.2631 6.25979 11.138 6.35355C11.013 6.44732 10.8434 6.5 10.6666 6.5ZM5.33329 3.5C5.15648 3.5 4.98691 3.55268 4.86189 3.64645C4.73686 3.74021 4.66663 3.86739 4.66663 4C4.66663 4.13261 4.73686 4.25979 4.86189 4.35355C4.98691 4.44732 5.15648 4.5 5.33329 4.5H10.6666C10.8434 4.5 11.013 4.44732 11.138 4.35355C11.2631 4.25979 11.3333 4.13261 11.3333 4C11.3333 3.86739 11.2631 3.74021 11.138 3.64645C11.013 3.55268 10.8434 3.5 10.6666 3.5H5.33329Z" fill="#A7A7A7"/>
<path fill-rule="evenodd" clip-rule="evenodd" d="M4 1.5C3.46957 1.5 2.96086 1.65804 2.58579 1.93934C2.21071 2.22064 2 2.60218 2 3V9C2 9.39782 2.21071 9.77936 2.58579 10.0607C2.96086 10.342 3.46957 10.5 4 10.5H12C12.5304 10.5 13.0391 10.342 13.4142 10.0607C13.7893 9.77936 14 9.39782 14 9V3C14 2.60218 13.7893 2.22064 13.4142 1.93934C13.0391 1.65804 12.5304 1.5 12 1.5H4ZM12 2.5H4C3.82319 2.5 3.65362 2.55268 3.5286 2.64645C3.40357 2.74021 3.33333 2.86739 3.33333 3V9C3.33333 9.13261 3.40357 9.25979 3.5286 9.35355C3.65362 9.44732 3.82319 9.5 4 9.5H12C12.1768 9.5 12.3464 9.44732 12.4714 9.35355C12.5964 9.25979 12.6667 9.13261 12.6667 9V3C12.6667 2.86739 12.5964 2.74021 12.4714 2.64645C12.3464 2.55268 12.1768 2.5 12 2.5Z" fill="#A7A7A7"/>
</svg>
