<svg width="10" height="10" viewBox="0 0 10 10" fill="none" xmlns="http://www.w3.org/2000/svg">
<path d="M0.333313 0.5V9.5H4.33331V7.75H5.66665V9.5H9.66665V0.5H0.333313ZM1.66665 1.5H2.99998V2.5H1.66665V1.5ZM4.33331 1.5H5.66665V2.5H4.33331V1.5ZM6.99998 1.5H8.33331V2.5H6.99998V1.5ZM1.66665 3.5H2.99998V4.5H1.66665V3.5ZM4.33331 3.5H5.66665V4.5H4.33331V3.5ZM6.99998 3.5H8.33331V4.5H6.99998V3.5ZM1.66665 5.5H2.99998V6.5H1.66665V5.5ZM4.33331 5.5H5.66665V6.5H4.33331V5.5ZM6.99998 5.5H8.33331V6.5H6.99998V5.5ZM1.66665 7.5H2.99998V8.5H1.66665V7.5ZM6.99998 7.5H8.33331V8.5H6.99998V7.5Z" fill="#A7A7A7"/>
</svg>
