<svg width="92" height="32" viewBox="0 0 92 32" fill="none" xmlns="http://www.w3.org/2000/svg">
<g filter="url(#filter0_d_21_338)">
<rect x="4" width="84" height="24" rx="12" fill="#D7FFE0"/>
<path d="M30.7192 8.718V9.735H28.1002V11.346H30.1072V12.345H28.1002V15H26.8402V8.718H30.7192ZM36.3197 10.014V15H35.0507V14.37C34.8887 14.586 34.6757 14.757 34.4117 14.883C34.1537 15.003 33.8717 15.063 33.5657 15.063C33.1757 15.063 32.8307 14.982 32.5307 14.82C32.2307 14.652 31.9937 14.409 31.8197 14.091C31.6517 13.767 31.5677 13.383 31.5677 12.939V10.014H32.8277V12.759C32.8277 13.155 32.9267 13.461 33.1247 13.677C33.3227 13.887 33.5927 13.992 33.9347 13.992C34.2827 13.992 34.5557 13.887 34.7537 13.677C34.9517 13.461 35.0507 13.155 35.0507 12.759V10.014H36.3197ZM38.8229 8.34V15H37.5629V8.34H38.8229ZM41.3278 8.34V15H40.0678V8.34H41.3278ZM48.9922 8.718V9.735H47.3182V15H46.0582V9.735H44.3842V8.718H48.9922ZM50.5505 9.42C50.3285 9.42 50.1425 9.351 49.9925 9.213C49.8485 9.069 49.7765 8.892 49.7765 8.682C49.7765 8.472 49.8485 8.298 49.9925 8.16C50.1425 8.016 50.3285 7.944 50.5505 7.944C50.7725 7.944 50.9555 8.016 51.0995 8.16C51.2495 8.298 51.3245 8.472 51.3245 8.682C51.3245 8.892 51.2495 9.069 51.0995 9.213C50.9555 9.351 50.7725 9.42 50.5505 9.42ZM51.1715 10.014V15H49.9115V10.014H51.1715ZM58.6084 9.942C59.2204 9.942 59.7124 10.131 60.0844 10.509C60.4624 10.881 60.6514 11.403 60.6514 12.075V15H59.3914V12.246C59.3914 11.856 59.2924 11.559 59.0944 11.355C58.8964 11.145 58.6264 11.04 58.2844 11.04C57.9424 11.04 57.6694 11.145 57.4654 11.355C57.2674 11.559 57.1684 11.856 57.1684 12.246V15H55.9084V12.246C55.9084 11.856 55.8094 11.559 55.6114 11.355C55.4134 11.145 55.1434 11.04 54.8014 11.04C54.4534 11.04 54.1774 11.145 53.9734 11.355C53.7754 11.559 53.6764 11.856 53.6764 12.246V15H52.4164V10.014H53.6764V10.617C53.8384 10.407 54.0454 10.242 54.2974 10.122C54.5554 10.002 54.8374 9.942 55.1434 9.942C55.5334 9.942 55.8814 10.026 56.1874 10.194C56.4934 10.356 56.7304 10.59 56.8984 10.896C57.0604 10.608 57.2944 10.377 57.6004 10.203C57.9124 10.029 58.2484 9.942 58.6084 9.942ZM66.4821 12.399C66.4821 12.579 66.4701 12.741 66.4461 12.885H62.8011C62.8311 13.245 62.9571 13.527 63.1791 13.731C63.4011 13.935 63.6741 14.037 63.9981 14.037C64.4661 14.037 64.7991 13.836 64.9971 13.434H66.3561C66.2121 13.914 65.9361 14.31 65.5281 14.622C65.1201 14.928 64.6191 15.081 64.0251 15.081C63.5451 15.081 63.1131 14.976 62.7291 14.766C62.3511 14.55 62.0541 14.247 61.8381 13.857C61.6281 13.467 61.5231 13.017 61.5231 12.507C61.5231 11.991 61.6281 11.538 61.8381 11.148C62.0481 10.758 62.3421 10.458 62.7201 10.248C63.0981 10.038 63.5331 9.933 64.0251 9.933C64.4991 9.933 64.9221 10.035 65.2941 10.239C65.6721 10.443 65.9631 10.734 66.1671 11.112C66.3771 11.484 66.4821 11.913 66.4821 12.399ZM65.1771 12.039C65.1711 11.715 65.0541 11.457 64.8261 11.265C64.5981 11.067 64.3191 10.968 63.9891 10.968C63.6771 10.968 63.4131 11.064 63.1971 11.256C62.9871 11.442 62.8581 11.703 62.8101 12.039H65.1771Z" fill="#018C0F"/>
</g>
<defs>
<filter id="filter0_d_21_338" x="0" y="0" width="92" height="32" filterUnits="userSpaceOnUse" color-interpolation-filters="sRGB">
<feFlood flood-opacity="0" result="BackgroundImageFix"/>
<feColorMatrix in="SourceAlpha" type="matrix" values="0 0 0 0 0 0 0 0 0 0 0 0 0 0 0 0 0 0 127 0" result="hardAlpha"/>
<feOffset dy="4"/>
<feGaussianBlur stdDeviation="2"/>
<feComposite in2="hardAlpha" operator="out"/>
<feColorMatrix type="matrix" values="0 0 0 0 0 0 0 0 0 0 0 0 0 0 0 0 0 0 0.25 0"/>
<feBlend mode="normal" in2="BackgroundImageFix" result="effect1_dropShadow_21_338"/>
<feBlend mode="normal" in="SourceGraphic" in2="effect1_dropShadow_21_338" result="shape"/>
</filter>
</defs>
</svg>
